<svg version="1" viewBox="0 0 320 180" xmlns="http://www.w3.org/2000/svg" xmlns:cc="http://creativecommons.org/ns#">
<rect width="320" height="180"/>
<rect x="145.23" y="72.08" width="78.77" height="67.92" rx="4" ry="4" fill="#626262"/>
<rect x="192.49" y="72.08" width="31.51" height="67.92" rx="4" ry="4" fill="#7d4aef"/>
<ellipse cx="208.25" cy="55.09" rx="15.75" ry="15.75" fill="#7d4aef"/>
<rect x="145.23" y="72.08" width="31.51" height="67.92" rx="4" ry="4" fill="#42a5f5"/>
<ellipse cx="160.99" cy="55.09" rx="15.75" ry="15.75" fill="#42a5f5"/>
<path d="m141.42 109.13c-14.641 11.649-27.82 19.534-40.357 29.591-3.2428 2.6261-5.0615 0.85311-5.0615-2.0025l0.0985-61.601c-0.0048-3.2293 1.101-4.0573 4.3684-1.6234 14.406 10.732 26.349 18.864 40.755 29.595 2.685 1.9037 2.6904 4.1389 0.197 6.0411z" fill="#ffb300"/>
</svg>