<?xml version="1.0" encoding="UTF-8"?>
<svg width="160mm" height="130mm" version="1.1" viewBox="0 0 160 130" xmlns="http://www.w3.org/2000/svg" xmlns:cc="http://creativecommons.org/ns#" xmlns:dc="http://purl.org/dc/elements/1.1/" xmlns:osb="http://www.openswatchbook.org/uri/2009/osb" xmlns:rdf="http://www.w3.org/1999/02/22-rdf-syntax-ns#" xmlns:xlink="http://www.w3.org/1999/xlink">
<defs>
<linearGradient id="a" x1="60" x2="100" y1="232" y2="232" gradientUnits="userSpaceOnUse">
<stop stop-color="#a36cff" offset="0"/>
</linearGradient>
</defs>
<metadata>
<rdf:RDF>
<cc:Work rdf:about="">
<dc:format>image/svg+xml</dc:format>
<dc:type rdf:resource="http://purl.org/dc/dcmitype/StillImage"/>
<dc:title/>
</cc:Work>
</rdf:RDF>
</metadata>
<g transform="translate(0,-167)">
<rect x="60" y="207" width="100" height="90" rx="5" ry="5" fill="#626262"/>
<g transform="translate(-20)" fill="#d76cff">
<rect x="140" y="207" width="40" height="90" rx="5" ry="5"/>
<circle cx="160" cy="187" r="20"/>
</g>
<g fill="url(#a)">
<rect x="60" y="207" width="40" height="90" rx="5" ry="5"/>
<circle cx="80" cy="187" r="20"/>
</g>
<path d="m57.584 255.15c-18.207 14.843-37.536 27.219-53.126 40.032-4.0326 3.3463-4.4569 1.6995-4.4569-1.9392v-82.046c-0.0060027-4.1149-0.1007-5.6599 3.9625-2.5585 17.915 13.674 35.706 26.977 53.621 40.651 3.3389 2.4258 3.1007 3.4365 0 5.8603z" fill="#f90"/>
</g>
</svg>
